<?xml version="1.0" standalone="no"?>
<!DOCTYPE svg PUBLIC "-//W3C//DTD SVG 20010904//EN"
 "http://www.w3.org/TR/2001/REC-SVG-20010904/DTD/svg10.dtd">
<svg version="1.0" xmlns="http://www.w3.org/2000/svg"
 width="300.000000pt" height="302.000000pt" viewBox="0 0 300.000000 302.000000"
 preserveAspectRatio="xMidYMid meet" style="width:110px;height:110px;">
<metadata>
Created by potrace 1.10, written by Peter Selinger 2001-2011
</metadata>
<g transform="translate(0.000000,302.000000) scale(0.050000,-0.050000)"
fill="#444444" stroke="none">
<path d="M2950 5977 c-77 -7 -216 -19 -310 -26 -111 -9 -193 -27 -236 -53 -37
-21 -86 -39 -110 -40 -69 -2 -162 -43 -236 -103 -37 -31 -106 -82 -153 -115
-47 -33 -85 -73 -85 -88 0 -15 -13 -33 -30 -39 -42 -17 -37 -86 10 -133 22
-22 40 -56 40 -76 0 -20 9 -45 21 -57 14 -14 -4 -74 -61 -194 -114 -243 -191
-777 -124 -859 11 -13 26 -69 34 -124 7 -55 26 -134 42 -175 36 -97 35 -122
-2 -108 -79 30 -174 -67 -123 -125 18 -20 34 -106 42 -232 9 -127 26 -218 46
-249 18 -28 36 -112 41 -194 7 -110 17 -146 42 -152 19 -5 46 -57 68 -130 19
-67 71 -183 114 -258 139 -242 142 -251 154 -559 13 -321 5 -348 -105 -348
-397 0 -47 -494 518 -733 450 -190 1139 -229 1528 -87 532 194 710 758 240
760 -106 0 -125 67 -124 429 l1 321 91 190 c50 105 107 246 128 315 27 91 46
125 71 125 51 0 64 65 38 192 -22 103 -20 114 16 139 25 18 43 62 52 123 61
444 55 506 -48 506 l-61 0 15 105 c56 381 -7 949 -122 1102 -26 35 -53 82 -60
105 -7 24 -52 84 -100 135 -55 58 -92 119 -101 164 -7 39 -30 88 -50 108 -24
24 -33 54 -26 89 22 117 -62 212 -187 212 -26 0 -87 17 -133 38 -119 53 -266
85 -325 70 -33 -8 -53 -3 -60 15 -12 30 -148 35 -380 14z m462 -244 c11 -38
30 -61 47 -57 23 5 23 1 2 -25 -17 -21 -19 -31 -3 -31 12 0 23 11 25 25 2 14
5 34 8 45 2 11 5 28 7 37 1 10 14 8 29 -5 16 -12 43 -17 60 -10 26 10 33 -1
33 -49 0 -67 29 -100 47 -53 7 17 27 30 46 30 19 0 50 15 70 33 21 18 37 23
37 11 0 -12 17 -27 38 -33 59 -19 68 -69 16 -93 -66 -30 -102 -156 -58 -204
27 -31 28 -39 4 -54 -62 -38 -130 170 -72 219 45 36 40 67 -5 42 -22 -11 -49
-61 -63 -115 -20 -80 -27 -89 -41 -56 -9 22 -17 31 -18 20 -1 -11 -15 -3 -32
19 -28 37 -29 36 -29 -18 0 -46 -7 -54 -40 -43 -22 6 -58 17 -79 24 -30 9 -42
0 -52 -40 -10 -39 -20 -48 -38 -33 -14 11 -30 16 -36 9 -6 -6 -39 3 -72 20
-65 34 -70 31 -91 -54 -18 -74 -59 -59 -72 26 l-10 67 -28 -54 c-28 -52 -62
-71 -62 -34 0 11 -13 15 -30 8 -17 -6 -30 0 -30 13 0 20 -6 20 -30 0 -18 -15
-30 -17 -30 -4 0 23 -36 21 -77 -4 -15 -10 -36 -7 -49 6 -12 12 -48 22 -80 22
-77 0 -60 47 22 60 49 8 59 16 45 39 -16 25 -32 19 -99 -35 -44 -35 -89 -64
-101 -64 -37 0 -22 41 21 57 41 15 41 17 6 52 -20 20 -39 27 -43 16 -4 -12
-22 -17 -41 -12 -45 12 -189 -110 -175 -147 6 -16 2 -23 -9 -16 -11 7 -20 3
-20 -9 0 -11 -20 -21 -45 -21 -36 1 -39 4 -15 20 17 11 23 20 15 20 -8 0 0 18
19 39 35 41 52 101 29 101 -8 0 -27 -18 -43 -40 -21 -29 -32 -33 -43 -15 -10
16 -20 4 -28 -35 -17 -84 -107 -186 -130 -148 -22 35 -3 102 34 124 21 12 25
37 15 89 l-14 72 71 -42 c68 -39 95 -40 95 -2 0 10 -21 17 -46 17 -54 0 -112
117 -70 143 13 8 32 10 41 4 9 -6 41 6 71 25 37 24 98 37 194 39 171 5 166 3
121 36 -39 29 8 68 51 42 10 -6 18 -3 18 7 0 25 104 45 130 26 28 -21 234 -16
268 6 19 13 24 11 14 -5 -8 -13 -1 -29 17 -35 24 -10 26 -19 10 -39 -17 -20
-12 -23 22 -15 23 7 47 24 53 39 6 15 23 27 38 27 15 0 28 8 28 19 0 22 68 33
151 24 49 -5 65 -19 81 -70z m511 -289 c11 18 16 9 17 -28 0 -29 10 -60 21
-67 25 -15 64 -110 52 -123 -5 -5 -32 15 -61 44 -29 29 -59 48 -67 43 -8 -5
-16 15 -16 44 -1 29 -10 71 -19 93 -17 39 -17 39 19 4 29 -30 40 -32 54 -10z
m-1443 -62 c0 -24 -92 -82 -131 -82 -20 0 -29 13 -25 35 4 19 23 34 42 32 18
-1 29 6 23 15 -6 10 12 18 40 18 28 0 51 -8 51 -18z m-32 -185 c16 25 250 9
281 -20 28 -25 86 -21 97 8 7 20 14 20 36 0 14 -14 42 -25 61 -25 19 0 42 -13
51 -29 25 -43 225 -48 249 -6 13 24 44 32 116 30 57 -1 113 10 131 25 28 23
36 23 50 -1 15 -23 33 -24 102 -5 150 40 438 -82 438 -185 0 -14 12 -29 26
-35 18 -7 28 -54 30 -142 4 -142 87 -345 129 -319 13 8 15 4 6 -11 -8 -14 -1
-40 15 -58 17 -19 37 -61 45 -94 8 -33 21 -69 29 -80 8 -11 35 -132 59 -270
58 -328 54 -315 102 -263 56 59 87 54 47 -8 -33 -49 -31 -138 4 -264 8 -28 4
-45 -10 -45 -13 0 -31 20 -41 45 -22 55 -26 37 -23 -105 2 -89 -6 -119 -43
-160 -35 -37 -43 -65 -35 -110 8 -42 -4 -87 -39 -150 -68 -120 -102 -220 -76
-220 11 0 8 -15 -8 -33 -15 -18 -25 -39 -22 -45 9 -22 -18 -82 -36 -82 -11 0
-19 -14 -19 -32 0 -17 -18 -55 -40 -83 -22 -28 -40 -67 -40 -88 0 -20 -14 -37
-32 -37 -25 0 -66 -74 -52 -95 2 -2 -20 -27 -49 -56 -49 -49 -50 -53 -16 -90
32 -35 32 -39 2 -39 -18 0 -33 -9 -33 -21 0 -13 17 -11 45 5 25 13 52 22 61
20 10 -3 13 2 8 11 -6 8 2 26 17 40 32 29 53 5 30 -34 -10 -15 -13 -38 -8 -51
5 -13 -5 -35 -22 -49 -17 -14 -26 -33 -20 -42 6 -10 14 -78 19 -153 5 -75 13
-154 18 -176 5 -22 10 -51 10 -64 1 -13 20 -29 42 -36 43 -14 61 -150 20 -150
-11 0 -19 -26 -16 -59 5 -72 26 -62 55 26 l22 67 103 -23 c130 -29 167 -144
70 -213 -10 -7 -16 -18 -15 -26 4 -23 -28 -69 -55 -75 -15 -4 -58 -36 -97 -72
-38 -36 -88 -65 -109 -65 -22 0 -58 -17 -81 -38 -44 -41 -217 -67 -217 -32 0
11 -8 8 -18 -8 -10 -15 -62 -30 -120 -35 -57 -4 -114 -10 -128 -12 -13 -3 -22
6 -19 20 3 14 -8 25 -24 25 -18 0 -25 12 -18 30 14 37 -39 41 -69 4 -12 -14
-42 -27 -68 -30 -25 -3 -64 -7 -86 -9 -33 -4 -40 7 -41 59 0 35 -7 70 -15 78
-8 8 -14 -7 -14 -34 -1 -77 -29 -104 -97 -94 -34 5 -66 -1 -71 -13 -5 -11 -10
-1 -10 22 -1 24 9 47 23 52 20 7 20 15 -1 39 -20 26 -20 33 5 43 42 16 39 53
-4 53 -23 0 -36 -17 -38 -50 -1 -28 8 -50 20 -50 13 0 -3 -23 -35 -50 -60 -52
-82 -63 -63 -32 6 9 -8 22 -31 28 -27 7 -37 21 -29 38 8 14 1 10 -15 -9 -29
-36 -65 -49 -45 -16 6 10 3 24 -9 31 -11 7 -20 4 -20 -7 0 -11 -20 -14 -44 -8
-25 7 -34 16 -20 20 54 18 19 44 -46 34 -41 -7 -69 -4 -65 8 3 10 -1 18 -9 16
-8 -2 -28 15 -45 37 -21 27 -30 30 -26 10 6 -38 -68 -28 -91 12 -9 15 -30 28
-46 28 -18 0 -25 9 -16 23 10 16 4 20 -19 11 -22 -9 -33 -2 -33 20 0 18 -5 27
-12 21 -29 -29 -151 105 -137 149 17 53 -9 116 -47 114 -21 -1 -24 -5 -9 -11
35 -15 31 -87 -5 -87 -16 0 -30 10 -30 21 0 12 -13 35 -30 52 -47 47 -36 72
30 63 33 -5 60 -3 60 5 0 7 21 35 47 61 27 27 55 80 63 118 20 96 65 144 111
120 25 -14 38 -11 46 10 15 38 -18 57 -60 33 -48 -26 -78 12 -81 101 0 41 -7
96 -13 123 -18 69 153 65 209 -5 20 -24 57 -47 83 -49 25 -3 76 -35 112 -70
46 -45 78 -61 105 -53 26 9 38 3 38 -19 0 -17 14 -31 30 -31 17 0 30 9 30 20
0 11 18 20 40 20 22 0 38 -11 35 -25 -8 -36 89 -44 115 -8 24 32 210 40 210 9
0 -27 127 -17 189 15 32 17 72 25 88 19 16 -6 35 -4 41 4 21 28 159 126 178
126 10 0 34 18 54 40 20 22 48 40 63 40 32 0 36 52 5 71 -11 7 -38 -5 -60 -28
-21 -23 -52 -37 -68 -30 -16 6 -70 -12 -119 -41 -80 -47 -91 -49 -107 -20 -13
23 -23 26 -32 11 -8 -13 -3 -23 12 -23 20 -1 19 -5 -3 -19 -18 -12 -48 -8 -85
11 -32 17 -56 20 -56 9 0 -11 -36 -26 -80 -33 -45 -7 -86 -21 -92 -31 -16 -26
-123 -20 -134 8 -7 20 -14 20 -36 0 -32 -30 -138 -33 -138 -4 0 13 -17 16 -42
8 -28 -9 -56 1 -88 31 -29 27 -51 35 -59 22 -20 -32 -57 -27 -45 6 6 15 -5 45
-24 65 -19 21 -31 49 -27 62 9 28 2 30 -43 13 -24 -9 -26 -21 -11 -49 18 -34
14 -35 -41 -16 -47 17 -59 30 -49 59 6 21 6 38 -1 38 -21 0 -70 -55 -70 -79 0
-11 -5 -21 -11 -21 -20 0 -68 55 -58 65 6 5 -4 21 -21 35 -16 14 -31 44 -32
67 -1 27 -5 33 -12 15 -14 -34 -71 108 -70 174 0 30 -9 43 -26 37 -16 -6 -36
14 -51 48 -13 33 -32 59 -41 59 -10 0 -18 14 -18 30 0 17 11 30 25 30 16 1 18
6 5 15 -12 8 -24 47 -27 85 -6 68 -43 137 -43 80 0 -18 -9 -15 -28 11 -19 25
-21 43 -8 51 13 8 8 32 -13 64 -27 41 -28 52 -6 57 21 6 23 26 7 97 -14 65
-22 78 -27 45 -10 -56 -44 -39 -46 21 -2 42 -2 43 -19 4 -16 -38 -17 -38 -19
5 0 25 10 46 24 46 14 1 5 10 -20 20 -37 14 -46 35 -49 113 -10 248 -12 263
-32 231 -10 -15 -17 3 -18 45 -1 39 6 70 16 70 10 0 18 -14 18 -31 0 -89 39
10 49 126 45 505 90 725 148 725 24 0 22 7 -8 32 -32 26 -33 29 -5 20 51 -15
89 90 94 264 7 216 112 364 259 364 37 0 64 13 72 34 10 28 17 29 30 8 11 -18
20 -19 29 -5z"/>
<path d="M3236 5710 c-12 -28 -30 -50 -39 -50 -25 0 -20 -56 6 -72 14 -9 18
-5 9 9 -9 14 -2 23 17 23 44 0 39 -18 -19 -72 -47 -43 -110 -47 -110 -6 0 10
-9 18 -21 18 -14 0 -14 -12 0 -37 27 -51 10 -63 -61 -43 -45 14 -58 11 -58
-13 0 -17 -10 -23 -23 -15 -13 8 -18 6 -11 -5 15 -24 214 -19 231 7 13 19 72
46 96 44 8 -1 21 13 31 30 10 18 41 32 69 32 46 0 49 4 25 33 -15 18 -25 52
-22 76 10 73 -90 106 -120 41z"/>
<path d="M2741 5681 c-26 -16 -25 -21 5 -32 43 -17 101 4 84 31 -15 25 -51 25
-89 1z"/>
<path d="M2845 5600 c-22 -35 -20 -40 12 -40 22 0 43 18 49 40 6 23 0 40 -13
40 -13 0 -35 -18 -48 -40z"/>
<path d="M2546 5568 c-18 -39 -18 -47 0 -33 13 10 47 17 74 16 47 -1 79 20 80
54 1 44 -131 12 -154 -37z"/>
<path d="M3586 5536 c-18 -20 -27 -42 -21 -48 14 -14 135 54 135 75 0 28 -82
8 -114 -27z"/>
<path d="M2753 5444 c-6 -9 -1 -29 10 -45 15 -22 22 -23 30 -4 6 14 23 25 39
25 15 0 28 9 28 20 0 24 -93 27 -107 4z"/>
<path d="M2371 4721 c-6 -10 -3 -23 7 -30 24 -14 82 8 82 31 0 24 -74 23 -89
-1z"/>
<path d="M3620 4721 c0 -11 -22 -21 -50 -21 -54 0 -67 -29 -21 -47 38 -15 126
55 94 75 -13 8 -23 5 -23 -7z"/>
<path d="M2912 4705 c-17 -16 -26 -18 -147 -22 -47 -2 -85 -13 -85 -25 0 -13
18 -18 44 -11 24 6 56 2 70 -10 19 -16 39 -13 75 10 27 18 63 27 80 21 20 -8
31 -1 31 20 0 33 -42 44 -68 17z"/>
<path d="M3189 4702 c6 -9 -10 -23 -34 -31 l-45 -13 49 -20 c87 -35 277 -8
236 34 -6 5 -43 12 -83 16 -40 4 -79 12 -86 19 -19 20 -50 15 -37 -5z"/>
<path d="M2253 4650 c-10 -25 -3 -31 28 -26 46 7 55 43 13 52 -16 3 -35 -9
-41 -26z"/>
<path d="M2403 4608 c-41 -29 -43 -68 -3 -68 20 0 68 79 55 91 -4 5 -27 -6
-52 -23z"/>
<path d="M3574 4418 c-150 -35 -270 -124 -214 -158 16 -10 42 -10 60 0 242
130 618 64 727 -126 44 -76 58 -62 32 30 -18 66 -136 196 -177 196 -9 0 -37
18 -62 40 -51 44 -220 52 -366 18z"/>
<path d="M2364 4367 c-26 -6 -51 -23 -57 -39 -6 -15 -20 -28 -31 -28 -38 0
-191 -124 -213 -172 -27 -58 -16 -60 54 -10 149 106 310 165 413 152 55 -7
143 -17 196 -22 52 -5 118 -18 145 -28 113 -43 39 66 -81 118 -62 27 -346 47
-426 29z"/>
<path d="M3506 4122 c-13 -21 -28 -23 -57 -8 -64 33 -89 12 -66 -54 11 -31 17
-83 12 -114 l-7 -56 -24 55 c-25 61 -64 74 -64 22 0 -94 116 -218 199 -214 45
3 81 -4 81 -14 0 -10 -11 -19 -25 -20 -14 0 -9 -13 13 -29 21 -16 44 -25 53
-20 8 5 36 -12 62 -38 78 -78 199 -102 240 -47 34 44 32 75 -5 75 -11 0 -16
-7 -10 -16 5 -9 1 -29 -9 -45 -16 -25 -18 -24 -19 3 0 24 -27 36 -102 45 -178
21 -221 132 -53 135 97 2 101 4 50 24 -30 12 -55 29 -55 38 0 9 -18 16 -41 16
-33 0 -93 28 -157 73 -14 11 43 67 68 67 14 0 30 -27 37 -60 11 -53 20 -60 81
-60 78 0 115 36 65 64 -54 30 -37 56 36 56 103 0 128 -59 45 -106 l-64 -35 70
14 c39 7 99 12 135 10 99 -6 82 47 -36 116 -114 66 -156 80 -253 84 -102 3
-102 4 -59 39 43 36 43 37 -40 32 -46 -2 -91 -17 -101 -32z"/>
<path d="M3864 4132 c29 -16 80 -58 113 -95 33 -37 66 -61 73 -53 27 27 -155
176 -214 176 -14 0 -2 -13 28 -28z"/>
<path d="M2390 4118 c-83 -26 -276 -218 -218 -218 9 0 5 -11 -8 -24 -36 -36
-29 -62 11 -46 19 8 120 18 225 22 184 7 320 62 210 85 -48 10 -24 52 33 59
142 17 94 -142 -51 -167 -43 -7 -124 -30 -180 -49 l-102 -36 163 10 c98 6 178
1 200 -11 34 -20 34 -22 2 -22 -19 -1 -35 -10 -35 -21 0 -31 36 -24 76 15 35
34 78 48 151 47 73 0 163 274 95 292 -23 6 -42 22 -42 36 0 14 -22 29 -48 35
-35 6 -45 1 -38 -18 13 -35 -12 -34 -102 4 -96 39 -134 16 -54 -33 67 -41 86
-72 23 -39 -86 47 -350 7 -391 -59 -7 -11 -23 -20 -35 -20 -12 0 3 27 35 60
32 33 68 60 80 60 12 0 40 13 61 29 44 33 27 36 -61 9z m58 -170 c25 -65 14
-91 -33 -77 -68 20 -85 43 -56 78 33 40 73 40 89 -1z"/>
<path d="M3065 4080 c4 -44 12 -48 53 -22 31 20 13 62 -28 62 -15 0 -26 -18
-25 -40z"/>
<path d="M4127 3830 c-6 -16 -23 -30 -37 -30 -36 0 -55 -60 -29 -91 48 -58
164 33 131 103 -25 55 -48 61 -65 18z"/>
<path d="M3059 3726 c11 -24 21 -69 21 -100 1 -43 5 -49 20 -26 29 45 24 71
-21 123 -39 44 -40 44 -20 3z"/>
<path d="M2800 3511 c-27 -15 -48 -33 -45 -39 13 -31 0 -58 -50 -105 -52 -48
-52 -51 -11 -44 24 4 44 -1 43 -11 0 -10 14 -26 31 -36 18 -10 32 -30 32 -44
0 -14 11 -26 25 -26 14 -1 52 -8 85 -16 67 -17 60 -7 -55 77 -86 63 -91 94
-35 198 22 41 38 75 35 74 -3 0 -27 -13 -55 -28z"/>
<path d="M3477 3392 c5 -72 -1 -88 -56 -128 -66 -49 -67 -99 -1 -64 21 11 50
18 64 15 14 -3 23 7 20 22 -3 17 6 24 24 17 16 -7 34 -1 39 12 16 38 93 -62
79 -102 -7 -19 -5 -28 3 -20 8 7 34 -4 57 -25 48 -45 72 -35 33 13 -24 28 -22
37 12 63 32 25 32 28 4 18 -22 -7 -42 2 -55 28 -12 21 -34 39 -49 39 -16 0
-40 31 -54 70 -16 44 -37 68 -56 65 -17 -3 -29 5 -27 18 3 13 -6 27 -20 33
-17 6 -22 -15 -17 -74z"/>
<path d="M3060 3448 c0 -6 17 -34 38 -60 31 -40 35 -62 20 -116 -14 -49 -11
-81 11 -123 22 -42 24 -64 7 -83 -33 -41 -6 -53 78 -35 91 18 167 13 201 -15
18 -15 25 -13 25 8 0 45 -89 83 -159 69 -57 -11 -63 -7 -74 48 -7 33 -20 65
-30 71 -22 14 -21 110 2 147 13 20 6 40 -23 65 -41 35 -96 49 -96 24z"/>
<path d="M2880 3380 c-53 -34 3 -89 97 -96 96 -7 114 32 39 85 -51 35 -93 39
-136 11z"/>
<path d="M3270 3360 c-33 -36 -34 -45 -9 -61 56 -37 129 -14 129 41 0 66 -69
77 -120 20z"/>
<path d="M2060 3242 c0 -39 25 -81 42 -71 30 19 20 89 -12 89 -16 0 -30 -8
-30 -18z"/>
<path d="M2991 3162 c-8 -23 -23 -37 -34 -30 -11 6 -24 -6 -30 -29 -7 -24 -22
-36 -39 -29 -17 6 -28 -3 -28 -22 0 -18 -13 -32 -30 -32 -16 0 -30 -9 -30 -20
0 -25 -176 -105 -199 -91 -23 15 -36 -27 -25 -83 5 -25 17 -40 28 -34 11 7 4
-17 -14 -52 -43 -84 0 -148 70 -105 50 32 76 31 109 0 15 -14 52 -43 83 -65
32 -22 78 -62 103 -88 25 -26 45 -38 45 -25 0 52 50 18 54 -37 3 -33 -4 -60
-14 -60 -10 0 -14 -12 -8 -27 8 -21 32 -23 111 -9 56 10 115 13 132 7 16 -6
43 -1 58 11 22 19 25 17 15 -9 -8 -22 -2 -33 18 -33 58 0 59 67 1 114 -30 24
-62 39 -71 34 -9 -6 -16 4 -16 21 0 17 10 31 21 31 12 0 35 14 52 30 41 41
-13 42 -92 0 -36 -18 -60 -22 -65 -9 -3 11 -57 23 -119 27 -123 7 -297 79
-297 122 0 36 71 58 167 52 69 -3 75 0 63 37 -14 45 -20 43 170 51 127 6 143
0 126 -42 -8 -21 -34 -30 -84 -27 -150 9 -175 3 -137 -34 48 -48 129 -50 212
-6 86 46 214 52 230 11 6 -18 27 -25 53 -18 29 8 60 -6 101 -45 74 -70 77 -67
81 100 4 135 -32 212 -85 179 -9 -6 -17 -1 -17 11 0 11 -11 21 -25 21 -14 0
-49 13 -79 28 -81 43 -81 17 0 -57 105 -97 63 -156 -57 -80 -89 56 -101 59
-94 25 8 -40 -140 -18 -240 36 -136 72 -197 64 -315 -42 -104 -93 -122 -101
-167 -73 -36 23 95 147 219 207 121 59 175 128 132 170 -27 27 -31 26 -43 -12z
m9 -289 c0 -17 -18 -26 -45 -23 -59 6 -59 7 -45 30 18 30 90 24 90 -7z"/>
<path d="M2020 3021 c0 -36 33 -74 51 -57 13 14 -15 96 -33 96 -10 0 -18 -17
-18 -39z"/>
<path d="M3969 2998 c-15 -23 28 -118 53 -118 8 0 12 25 8 55 -4 30 -8 62 -9
70 -2 23 -37 18 -52 -7z"/>
<path d="M3829 2431 c-22 -17 -56 -30 -77 -30 -36 -1 -37 -3 -3 -39 37 -42 86
-15 117 65 16 40 12 41 -37 4z"/>
<path d="M2269 2414 c-8 -21 -4 -47 8 -59 34 -34 52 -1 28 50 -19 41 -22 42
-36 9z"/>
<path d="M3907 2410 c7 -16 4 -30 -5 -30 -10 0 -23 -13 -29 -30 -8 -20 1 -30
28 -30 32 0 39 12 35 60 -2 33 -13 60 -22 60 -10 0 -13 -13 -7 -30z"/>
<path d="M3594 2348 c-22 -22 -17 -72 6 -58 11 7 26 -2 32 -19 7 -17 24 -31
38 -31 39 0 50 75 14 104 -27 23 -29 20 -18 -24 l12 -50 -35 46 c-19 25 -41
39 -49 32z"/>
<path d="M2701 2324 c-1 -15 -9 -22 -18 -16 -41 25 -89 -39 -64 -86 25 -46 76
-47 65 -1 -5 20 0 21 23 2 42 -35 56 16 22 78 -15 27 -28 37 -28 23z"/>
<path d="M2981 1607 c-1 -41 -77 -55 -133 -23 -42 24 -131 37 -118 17 7 -12
24 -21 39 -21 15 0 32 -13 38 -30 7 -16 28 -30 47 -30 20 0 75 -14 123 -31 73
-25 223 -35 223 -14 0 16 -115 50 -158 46 -33 -3 -45 4 -38 22 6 15 3 45 -5
67 -16 39 -16 39 -18 -3z"/>
<path d="M3553 1603 c-44 -49 -42 -83 7 -83 25 0 40 13 40 36 0 20 11 47 24
60 19 19 17 24 -7 24 -17 0 -46 -16 -64 -37z"/>
<path d="M1556 1252 c-62 -35 -121 -71 -130 -81 -9 -10 -5 -11 9 -3 14 8 25 5
25 -7 0 -11 14 -21 31 -21 18 0 61 -22 97 -50 36 -27 76 -50 88 -50 12 0 29
-13 38 -29 10 -17 39 -34 66 -39 28 -5 55 -11 60 -13 6 -2 17 -3 25 -1 8 1 15
-11 15 -28 0 -16 10 -30 21 -30 12 0 50 -22 85 -49 61 -46 72 -51 110 -51 8 0
46 -29 85 -64 38 -36 77 -62 86 -60 19 6 173 -49 253 -90 28 -14 64 -26 81
-26 17 0 42 -11 55 -24 13 -13 24 -16 24 -6 0 10 13 0 29 -21 17 -23 30 -28
30 -14 1 18 18 22 54 12 34 -8 48 -5 40 7 -6 12 -42 25 -78 31 -36 6 -115 33
-175 61 -61 27 -155 65 -210 85 -105 37 -329 177 -356 222 -9 15 -25 27 -36
27 -11 0 -49 27 -84 60 -43 41 -77 58 -106 51 -30 -7 -49 3 -67 37 -14 26 -39
46 -55 44 -17 -1 -39 19 -49 45 -17 47 -17 47 32 15 69 -45 74 -42 67 41 -8
94 -22 96 -160 19z"/>
<path d="M1275 1089 c-41 -27 -75 -60 -75 -73 0 -18 -6 -18 -22 -2 -23 23
-138 -3 -138 -31 1 -32 35 -61 85 -74 48 -12 54 -9 42 24 -13 35 -11 35 30 -2
38 -33 43 -33 32 -5 -8 21 -2 38 17 45 18 7 26 27 19 51 -13 52 194 18 218
-36 14 -32 140 -108 163 -99 18 7 18 10 -1 11 -14 1 -25 16 -25 32 0 17 -18
30 -40 30 -22 0 -40 9 -40 20 0 11 -13 20 -30 20 -16 0 -30 17 -30 39 0 21
-18 44 -40 51 -22 7 -40 21 -40 31 0 31 -46 19 -125 -32z"/>
<path d="M4874 1105 c-14 -24 34 -135 61 -140 14 -3 25 13 25 35 0 22 -9 40
-20 40 -11 0 -20 13 -20 29 0 33 -33 59 -46 36z"/>
<path d="M5180 1008 c0 -7 23 -40 52 -74 45 -53 51 -75 41 -148 -12 -81 -10
-86 37 -86 52 0 70 49 25 67 -20 8 -20 10 0 11 14 1 38 -27 53 -63 16 -36 29
-51 30 -35 1 17 -16 59 -38 95 -22 36 -40 79 -40 94 0 16 -29 56 -65 90 -62
58 -95 75 -95 49z"/>
<path d="M4738 996 c-1 -3 -4 -33 -8 -66 -3 -33 -9 -69 -11 -80 -3 -11 2 -36
10 -55 10 -22 3 -54 -17 -84 -37 -57 -41 -91 -11 -91 11 0 18 13 15 29 -3 15
3 27 14 25 11 -2 18 -26 16 -54 -2 -27 10 -6 27 48 32 101 23 300 -14 323 -11
6 -20 9 -21 5z"/>
<path d="M857 926 c-41 -5 -85 -21 -98 -37 -13 -16 -41 -29 -61 -29 -21 0 -38
-9 -38 -20 0 -11 -41 -30 -91 -42 -98 -25 -108 -57 -23 -80 43 -12 54 -8 54
19 0 18 23 43 50 56 33 15 50 16 50 3 0 -12 12 -11 30 4 17 14 30 18 30 9 0
-9 11 -2 25 15 30 37 131 59 140 30 4 -12 18 -14 31 -6 32 19 31 93 -1 89 -14
-2 -58 -7 -98 -11z"/>
<path d="M5440 841 c0 -69 42 -121 99 -121 57 0 59 -3 40 -53 -26 -68 -10 -84
23 -24 41 76 45 190 7 205 -42 16 -69 -1 -70 -44 0 -28 -7 -26 -38 11 -40 48
-61 57 -61 26z"/>
<path d="M4546 769 c-20 -45 -19 -51 10 -45 19 4 37 27 40 51 9 61 -20 57 -50
-6z"/>
<path d="M4297 626 c-30 -18 -63 -54 -75 -80 -19 -42 -42 -55 -73 -41 -7 3
-21 -11 -32 -31 -20 -36 -21 -36 -49 0 -27 35 -29 35 -57 -1 -33 -43 -19 -109
16 -74 27 27 80 28 63 1 -7 -11 -3 -20 8 -20 11 0 24 8 30 17 6 10 34 13 62 8
36 -7 50 -1 50 22 0 17 17 48 37 67 29 28 94 168 77 165 -2 0 -28 -15 -57 -33z"/>
<path d="M5185 566 c-19 -42 -43 -82 -52 -88 -9 -7 -14 -16 -11 -20 3 -5 -6
-39 -21 -78 -33 -88 -39 -140 -18 -140 27 0 19 -35 -15 -70 -18 -17 -28 -36
-23 -41 5 -6 21 4 35 21 14 16 37 30 52 30 16 0 27 7 25 15 -2 8 7 40 19 70
16 37 17 71 4 106 -11 28 -12 65 -3 85 10 19 32 63 50 98 21 40 26 68 14 76
-12 7 -36 -22 -56 -64z"/>
<path d="M5862 525 c-1 -14 -12 -23 -25 -20 -13 3 -25 -18 -27 -47 -2 -28 -10
-62 -18 -75 -8 -12 -4 -23 9 -23 16 0 19 -23 10 -72 -29 -152 6 -288 73 -288
l60 0 -8 205 c-6 169 -67 431 -74 320z"/>
<path d="M5480 480 c0 -24 -11 -62 -24 -86 -27 -49 -38 -174 -15 -174 13 0 40
90 68 224 6 29 2 59 -9 66 -11 7 -20 -7 -20 -30z"/>
<path d="M2892 473 c7 -18 21 -33 31 -33 11 0 14 9 7 19 -12 21 201 -87 244
-122 26 -22 66 -7 66 25 0 11 -8 15 -18 9 -22 -13 -67 38 -48 56 7 7 -2 13
-19 13 -17 0 -35 9 -38 19 -4 11 -59 26 -122 33 -102 12 -114 10 -103 -19z"/>
<path d="M3660 430 l-90 -26 100 3 c55 2 106 11 113 21 19 27 82 -3 65 -31
-10 -16 -4 -20 18 -11 37 14 66 -16 34 -36 -25 -15 -27 -90 -2 -90 17 0 62
104 62 143 0 9 -17 17 -39 17 -21 0 -44 9 -51 20 -16 26 -98 22 -210 -10z"/>
<path d="M601 376 c-1 -18 8 -39 20 -47 14 -8 14 -21 -2 -41 -32 -38 13 -37
81 2 47 27 48 29 7 29 -23 1 -56 21 -74 46 -25 36 -31 39 -32 11z"/>
<path d="M5563 254 c-44 -266 -44 -254 7 -254 54 0 94 113 50 140 -18 11 -16
27 9 65 30 47 30 53 0 83 -18 18 -28 46 -22 62 6 16 4 33 -4 38 -9 6 -27 -55
-40 -134z"/>
<path d="M3555 365 c-66 -6 -72 -11 -47 -36 33 -33 92 -39 92 -9 0 11 14 20
30 20 17 0 30 9 30 20 0 11 -7 18 -15 17 -8 -2 -49 -7 -90 -12z"/>
<path d="M2892 303 c-13 -21 158 -147 175 -129 7 7 13 3 13 -9 0 -11 12 -26
28 -31 23 -9 23 -1 -2 47 -19 40 -53 66 -107 82 -43 12 -73 31 -67 40 6 9 1
17 -10 17 -11 0 -24 -8 -30 -17z"/>
<path d="M5306 275 c-32 -41 -45 -93 -27 -105 11 -6 10 -38 0 -75 -25 -85 -24
-95 8 -95 20 0 27 35 29 130 0 71 7 138 14 150 18 29 -1 25 -24 -5z"/>
<path d="M3312 243 c-6 -9 11 -27 39 -40 39 -18 49 -17 49 5 0 15 -14 33 -32
40 -40 16 -44 15 -56 -5z"/>
<path d="M626 186 c-7 -19 -3 -37 10 -41 13 -5 24 -39 24 -77 0 -87 50 -92 67
-7 20 98 -69 208 -101 125z"/>
</g>
</svg>
