<?xml version="1.0" standalone="no"?>
<!DOCTYPE svg PUBLIC "-//W3C//DTD SVG 20010904//EN"
 "http://www.w3.org/TR/2001/REC-SVG-20010904/DTD/svg10.dtd">
<svg version="1.0" xmlns="http://www.w3.org/2000/svg"
 width="450.000000pt" height="453.000000pt" viewBox="0 0 450.000000 453.000000"
 preserveAspectRatio="xMidYMid meet" style="width:110px;height:110px;">
<metadata>
Created by potrace 1.10, written by Peter Selinger 2001-2011
</metadata>
<g transform="translate(0.000000,453.000000) scale(0.050000,-0.050000)"
fill="#444444" stroke="none">
<path d="M4617 8991 c-5 -6 -86 -12 -179 -14 -92 -1 -185 -11 -205 -21 -21
-11 -88 -22 -150 -26 -253 -13 -389 -37 -476 -83 -50 -26 -123 -47 -168 -47
-43 0 -79 -8 -79 -18 0 -10 -34 -24 -76 -31 -47 -8 -98 -36 -132 -72 -30 -32
-68 -59 -84 -59 -15 0 -28 -13 -28 -28 0 -15 -27 -37 -60 -49 -33 -12 -60 -30
-60 -42 0 -12 -14 -21 -31 -21 -35 0 -169 -138 -169 -174 0 -13 -14 -32 -31
-41 -45 -26 -64 -165 -22 -165 36 0 100 -109 87 -146 -5 -13 9 -44 31 -68 45
-50 47 -42 -89 -315 -82 -165 -130 -303 -144 -419 -7 -54 -20 -108 -30 -120
-37 -46 -36 -731 1 -754 13 -8 26 -40 28 -71 7 -77 64 -332 89 -397 21 -55 27
-150 10 -150 -6 0 -28 11 -49 24 -31 19 -50 15 -109 -25 -95 -65 -102 -92 -45
-177 43 -63 50 -103 62 -327 13 -258 34 -358 85 -418 19 -22 34 -107 43 -250
12 -205 15 -217 58 -223 25 -4 45 -10 45 -13 0 -27 124 -402 136 -410 9 -6 54
-90 101 -185 47 -96 93 -180 104 -186 76 -48 102 -197 114 -653 13 -521 30
-476 -202 -515 -198 -34 -208 -44 -191 -179 17 -142 41 -200 105 -263 28 -27
77 -76 107 -108 31 -32 73 -73 94 -90 22 -18 60 -52 86 -77 26 -25 56 -45 66
-45 10 0 25 -12 34 -26 25 -41 181 -138 371 -230 253 -124 272 -130 719 -245
436 -112 1047 -119 1526 -20 285 60 747 341 838 511 18 33 59 109 92 170 76
139 57 330 -39 389 -11 7 -14 25 -9 40 16 42 -45 64 -218 79 -280 25 -284 33
-284 661 0 494 19 605 131 747 21 27 39 60 39 72 0 12 23 65 50 116 28 52 50
106 50 120 0 14 14 52 31 85 17 32 37 104 45 160 12 87 21 102 63 108 96 13
146 290 64 354 -27 21 -14 169 15 169 76 0 110 117 142 480 10 105 22 224 28
265 6 42 2 75 -9 75 -10 0 -19 22 -19 50 0 53 -55 79 -143 67 -53 -8 -56 81
-15 443 45 389 -18 987 -123 1185 -11 19 -19 53 -19 75 0 22 -8 40 -17 40 -9
0 -34 32 -54 70 -21 39 -45 70 -54 70 -8 0 -15 11 -15 24 0 33 -146 275 -167
276 -41 1 -131 121 -144 192 -24 133 -70 228 -110 228 -31 0 -34 9 -18 65 57
196 -32 323 -239 343 -78 8 -142 21 -142 29 0 8 -40 26 -90 41 -49 14 -90 34
-90 44 0 10 -17 18 -38 18 -21 0 -95 14 -163 32 -95 24 -136 27 -173 10 -69
-32 -85 -28 -106 28 -20 51 -67 66 -91 29 -12 -20 -75 -17 -230 13 -28 5 -56
5 -62 -1z m-63 -186 c7 -19 23 -42 35 -50 14 -10 13 -14 -4 -15 -26 0 -33 -55
-13 -107 9 -26 21 -24 80 11 37 22 69 32 69 23 1 -9 11 6 23 33 12 28 21 61
19 73 -5 33 31 53 47 26 8 -11 3 -33 -9 -48 -36 -43 15 -61 59 -21 33 30 47
31 114 8 42 -14 104 -23 138 -20 42 3 67 -6 75 -27 6 -17 2 -31 -10 -31 -13 0
-16 -20 -9 -49 9 -35 3 -50 -20 -55 -27 -5 -25 -13 13 -46 25 -22 40 -29 32
-16 -7 13 -5 29 7 36 11 7 21 -4 22 -24 0 -20 6 -25 11 -12 5 13 1 40 -9 60
-30 58 -8 86 57 73 77 -16 74 1 -11 82 -38 36 -70 71 -70 78 0 26 56 12 67
-17 7 -16 30 -30 52 -30 23 0 41 -13 41 -29 0 -16 16 -38 35 -49 19 -12 27
-21 18 -21 -10 -1 -7 -14 7 -30 13 -17 25 -75 27 -130 l2 -99 46 42 c25 24 46
57 47 74 1 21 5 23 11 7 17 -41 103 -30 117 15 7 22 22 40 33 40 12 0 25 -18
31 -40 14 -52 67 -52 80 0 6 22 19 35 29 28 10 -6 13 -19 7 -29 -7 -10 2 -44
18 -76 28 -54 28 -61 -9 -94 -21 -19 -39 -47 -39 -62 0 -16 -18 -25 -45 -22
-35 4 -46 -6 -51 -49 -4 -29 -19 -64 -34 -76 -24 -20 -22 -33 15 -82 74 -100
131 -71 80 42 -45 101 -46 120 -5 120 20 0 41 -11 45 -25 7 -18 21 -14 52 13
34 30 48 33 71 13 35 -29 34 -96 -2 -110 -33 -13 -34 -54 -1 -50 59 8 83 -1
62 -22 -29 -29 12 -119 54 -119 77 0 140 -144 88 -201 -54 -60 -74 -46 -39 26
28 57 28 60 1 26 -17 -21 -31 -31 -31 -22 0 9 -13 5 -30 -9 -24 -20 -30 -20
-30 0 0 96 -212 248 -266 191 -29 -31 -94 -16 -94 21 0 16 -13 28 -30 28 -70
0 -83 306 -13 316 38 6 65 65 28 63 -58 -2 -109 -85 -112 -179 -2 -61 -12
-100 -26 -100 -40 0 27 -111 82 -136 33 -15 46 -33 38 -53 -14 -39 -45 -40
-59 -2 -6 16 -23 24 -38 18 -38 -14 -89 72 -82 138 5 43 -2 55 -31 55 -25 0
-37 15 -38 45 l-2 45 -22 -47 c-14 -28 -15 -51 -4 -60 29 -20 22 -102 -10
-122 -32 -20 -88 12 -70 40 5 9 1 22 -11 29 -11 7 -20 -1 -20 -16 0 -44 -53
-82 -71 -52 -10 16 -7 19 11 8 19 -12 23 -8 15 15 -7 18 -2 37 11 42 14 6 10
11 -9 11 -18 1 -38 16 -44 32 -7 17 -21 30 -32 30 -26 0 -27 -119 -3 -158 20
-32 8 -82 -20 -82 -10 0 -18 12 -18 27 0 37 -73 100 -88 76 -7 -11 -7 -33 -1
-49 25 -64 -31 -52 -58 13 -33 79 -75 115 -58 50 8 -31 3 -40 -17 -32 -15 5
-26 20 -23 33 3 12 -4 22 -15 22 -11 0 -20 18 -20 40 0 22 -9 40 -20 40 -11 0
-20 -47 -20 -105 0 -82 -8 -111 -38 -129 -50 -31 -132 33 -117 91 16 63 -21
102 -50 53 -30 -50 -32 -74 -10 -104 23 -31 -45 -67 -100 -53 -44 11 -73 58
-55 87 20 32 -25 40 -50 10 -31 -37 -68 -39 -54 -3 6 15 2 39 -8 55 -14 22
-17 20 -18 -11 0 -30 -5 -34 -24 -15 -35 35 -56 29 -56 -16 0 -53 -27 -50 -92
10 -64 60 -66 60 -102 15 -21 -25 -31 -28 -39 -10 -14 34 -99 31 -155 -6 -40
-26 -49 -26 -58 -2 -12 30 -114 40 -114 11 0 -10 -22 -18 -48 -18 -30 0 -69
-24 -100 -62 -46 -54 -52 -56 -52 -20 0 23 -9 42 -20 42 -11 0 -20 -10 -20
-21 0 -12 -8 -16 -19 -10 -10 7 -30 0 -44 -16 -35 -37 -97 -17 -97 31 0 22 11
36 25 31 62 -21 186 203 132 237 -15 9 -18 5 -8 -11 9 -14 0 -35 -25 -52 -21
-15 -45 -51 -52 -79 -8 -32 -27 -50 -52 -50 -22 0 -40 -13 -40 -28 0 -16 -9
-32 -21 -36 -11 -3 -22 -27 -24 -51 -2 -29 -17 -45 -39 -45 -20 0 -36 -13 -36
-30 0 -16 -10 -30 -22 -30 -14 0 -9 -20 11 -51 27 -42 29 -57 9 -82 -22 -26
-28 -24 -50 17 -13 25 -37 46 -51 46 -37 0 -34 39 3 40 17 0 33 20 36 45 4 25
-3 45 -15 45 -27 0 -28 73 -1 90 31 19 25 164 -7 176 -29 11 -60 96 -32 88 9
-2 30 14 48 36 31 39 31 38 19 -15 -8 -34 -4 -55 10 -55 12 0 22 14 22 31 0
65 45 86 100 48 65 -47 140 -68 140 -40 0 11 -17 21 -38 21 -60 0 -103 22 -89
45 8 12 4 15 -10 7 -14 -9 -36 17 -57 67 -20 45 -43 81 -51 81 -9 0 -6 19 6
42 15 29 35 38 63 31 55 -14 136 41 123 84 -8 28 -7 28 13 -2 12 -20 32 -30
44 -22 13 8 16 4 8 -10 -8 -13 -4 -23 9 -23 12 0 28 18 33 41 11 41 70 39 115
-3 37 -34 77 -21 42 13 -17 18 -31 39 -31 47 0 15 14 18 99 27 32 3 34 9 15
34 -13 17 -3 14 22 -7 l45 -39 -46 -50 c-38 -41 -39 -47 -8 -36 20 7 54 13 75
13 53 0 52 102 -2 135 -60 38 -48 65 26 65 37 0 84 16 106 37 51 47 205 77
158 30 -17 -17 -42 -32 -57 -34 -46 -7 -140 -86 -127 -107 7 -11 36 -16 63
-11 28 5 46 18 40 27 -6 10 10 18 37 18 64 0 174 39 174 62 0 10 -11 18 -23
18 -13 0 -19 5 -13 10 18 19 76 -14 63 -35 -8 -13 -3 -15 11 -6 14 8 40 1 58
-16 58 -52 144 -77 144 -43 0 20 20 30 59 30 62 0 96 28 60 51 -14 9 -10 26
13 51 43 47 66 48 82 3z m-1625 -757 c12 -48 2 -87 -16 -66 -19 22 -32 118
-16 118 10 0 25 -24 32 -52z m986 -232 c99 2 134 -5 163 -34 43 -43 135 -49
150 -9 13 34 94 36 87 2 -3 -15 22 -28 62 -31 45 -5 71 -19 77 -43 17 -65 381
-81 370 -17 -7 45 125 72 181 38 27 -18 45 -18 64 -3 14 12 41 16 60 9 23 -9
37 -1 45 29 13 52 126 63 126 12 0 -34 90 -31 186 8 74 30 87 29 101 -7 7 -16
21 -30 32 -30 12 0 21 14 21 30 0 34 31 40 50 10 21 -34 154 -81 193 -69 27 9
37 1 37 -27 0 -26 18 -44 50 -52 28 -7 50 -25 50 -40 0 -15 14 -33 30 -39 17
-7 30 -30 30 -53 0 -25 19 -48 50 -60 44 -17 49 -30 47 -114 -7 -292 7 -369
86 -454 20 -22 37 -54 37 -71 0 -17 10 -44 21 -61 30 -45 82 33 76 114 -3 35
0 70 7 77 7 7 8 26 2 41 -5 15 -3 28 7 28 21 0 20 96 -2 145 -8 19 -23 30 -33
24 -10 -7 -14 -20 -8 -29 17 -28 -32 -46 -57 -21 -17 18 -15 28 12 43 41 23
46 89 10 112 -14 9 -26 34 -27 56 -2 22 -9 56 -17 75 -11 24 -6 35 13 35 15 0
36 -29 47 -65 21 -72 81 -98 94 -41 4 20 9 -2 10 -49 3 -92 18 -132 45 -115 9
6 23 1 30 -10 7 -11 -1 -26 -18 -32 -27 -10 -27 -15 -1 -41 18 -19 24 -48 17
-79 -7 -27 -2 -62 12 -78 16 -19 17 -30 4 -30 -12 0 -28 10 -36 23 -9 15 -31
-11 -57 -65 -24 -48 -56 -109 -72 -135 -27 -43 -25 -49 16 -77 25 -17 45 -46
45 -63 1 -47 47 -173 76 -208 13 -16 34 -82 45 -147 11 -65 27 -131 34 -148
14 -34 13 -31 43 -270 39 -308 52 -341 98 -240 24 51 114 107 136 84 7 -6 -8
-41 -34 -77 -50 -69 -58 -221 -19 -347 10 -33 23 -90 29 -127 l9 -67 -48 45
c-27 25 -49 56 -49 69 0 12 -11 38 -25 57 -20 28 -24 -3 -18 -167 5 -163 0
-212 -27 -252 -18 -28 -28 -63 -23 -78 6 -15 -1 -31 -16 -37 -29 -11 -36 -108
-8 -125 30 -18 20 -108 -10 -96 -16 6 -32 -6 -38 -30 -6 -24 1 -44 18 -51 16
-6 23 -21 16 -33 -10 -15 -20 -15 -35 0 -44 44 -58 21 -45 -68 9 -61 6 -90 -9
-90 -13 0 -18 16 -11 38 7 21 2 45 -11 53 -15 9 -19 7 -11 -6 8 -13 -5 -25
-32 -29 l-45 -6 45 -39 c46 -41 59 -100 27 -120 -11 -6 -25 -41 -33 -76 -8
-36 -46 -103 -84 -150 -63 -76 -69 -121 -9 -61 31 31 30 -5 -2 -46 -13 -17
-35 -28 -49 -23 -14 5 -25 -1 -25 -13 0 -11 -24 -43 -54 -70 l-54 -50 46 -17
46 -17 -52 -62 c-29 -34 -52 -72 -52 -85 0 -15 -13 -11 -33 9 -30 30 -36 30
-64 2 -34 -34 -26 -51 30 -62 20 -4 40 -8 43 -8 32 -9 -50 -81 -97 -86 -45 -4
-72 -25 -104 -76 -23 -38 -35 -63 -26 -55 10 8 30 4 45 -8 15 -12 33 -17 40
-10 7 7 24 3 38 -9 19 -16 33 -6 57 41 50 96 98 82 79 -24 -8 -47 -13 -105
-11 -131 2 -30 -13 -52 -47 -68 -56 -25 -66 -66 -20 -83 17 -7 30 -26 30 -42
0 -17 9 -31 20 -31 21 0 17 -70 -6 -93 -22 -21 -17 -231 5 -218 10 7 19 -22
20 -64 4 -143 5 -147 37 -120 25 21 28 18 16 -20 -11 -35 -7 -45 20 -45 19 0
29 -5 23 -12 -6 -6 4 -27 24 -47 20 -20 40 -47 44 -61 7 -21 18 -21 56 -1 41
22 45 21 35 -6 -8 -21 -3 -28 17 -20 16 6 29 1 29 -12 0 -13 10 -17 21 -10 12
7 17 26 11 41 -18 47 69 33 151 -24 108 -75 135 -198 66 -302 -16 -24 -29 -58
-29 -75 0 -17 -14 -31 -31 -31 -17 0 -26 -9 -19 -20 14 -23 -68 -106 -179
-180 -41 -27 -93 -67 -115 -87 -75 -70 -254 -140 -287 -112 -20 17 -29 17 -29
1 0 -12 11 -22 24 -22 81 0 -36 -41 -128 -45 -62 -3 -109 -10 -105 -17 11 -18
-75 -58 -121 -56 -22 1 -94 -8 -160 -19 -148 -26 -339 -3 -386 46 -32 34 -32
34 11 13 37 -19 42 -18 33 7 -7 17 -33 29 -58 26 -40 -3 -43 -10 -27 -52 22
-58 3 -85 -30 -42 -28 39 -88 63 -102 41 -17 -27 -191 -25 -191 3 0 17 -39 25
-130 25 -72 0 -130 -5 -130 -11 0 -22 -70 -13 -109 14 -22 15 -63 27 -90 27
-31 0 -42 7 -27 16 16 10 18 25 6 45 -15 23 -27 24 -56 6 -43 -27 -135 -13
-201 30 -35 22 -50 24 -61 6 -10 -16 -28 -8 -58 27 -24 27 -65 50 -90 50 -58
0 -238 89 -219 108 7 8 -3 8 -23 0 -25 -9 -43 -3 -55 19 -11 18 -31 33 -46 33
-14 0 -37 14 -51 30 -14 17 -30 26 -36 21 -19 -20 -64 34 -64 76 -1 35 -4 38
-20 13 -19 -30 -120 57 -120 104 0 10 -8 13 -18 7 -24 -14 -138 117 -153 176
-6 25 -24 46 -40 46 -22 0 -23 -6 -6 -27 18 -21 16 -24 -10 -15 -28 11 -71
142 -50 156 4 2 40 29 81 59 85 62 102 65 137 23 32 -39 69 -27 69 23 0 23 16
40 40 44 22 3 50 27 62 53 18 39 17 46 -5 37 -34 -13 -34 -4 1 64 19 36 23 72
12 110 -9 31 -11 62 -5 69 16 15 12 277 -4 328 -7 22 -3 45 8 53 14 8 11 27
-9 56 -46 65 -37 80 40 68 119 -19 119 78 -1 135 -69 33 -104 102 -82 159 6
16 -2 40 -18 53 -16 13 -29 35 -29 49 0 13 -23 47 -51 75 -36 37 -43 54 -25
62 19 8 17 16 -9 33 -19 12 -35 32 -35 43 0 12 -31 65 -70 117 -61 83 -66 98
-40 120 39 33 38 56 -2 53 -49 -4 -86 63 -48 87 31 20 15 27 -47 21 -31 -4
-35 7 -27 69 8 59 1 81 -35 113 -25 21 -46 63 -48 93 -1 30 -6 68 -9 84 -4 17
-18 83 -32 147 -14 64 -38 147 -54 184 -15 37 -28 129 -28 203 -1 148 -25 219
-59 167 -34 -54 -43 -8 -22 121 18 113 16 134 -20 195 -41 68 -38 110 4 68 12
-12 33 -17 48 -12 16 6 30 -13 39 -52 12 -57 50 -87 50 -40 0 154 88 944 110
995 17 36 30 76 30 90 0 13 14 51 31 84 35 66 43 143 21 192 -9 21 -3 37 17
45 19 7 31 1 31 -15 0 -39 54 -55 68 -21 6 16 5 43 -1 60 -8 21 2 35 28 42 36
9 38 19 22 77 -11 42 -10 99 2 153 11 48 20 140 21 204 0 100 6 118 40 127 22
6 40 25 40 43 0 18 18 62 39 97 28 45 32 66 15 73 -13 5 0 11 30 11 29 1 59
11 66 21 6 11 53 19 104 18 70 -2 99 7 124 39 38 49 91 64 172 48 33 -6 116
-10 185 -8z m-919 -253 c25 -16 2 -123 -27 -123 -6 0 -5 10 3 23 9 15 5 18
-11 8 -14 -9 -19 -35 -12 -62 13 -54 -20 -79 -123 -95 -49 -8 -61 -4 -52 18 5
15 18 28 28 28 10 0 18 23 18 50 0 28 8 50 18 50 10 0 28 25 39 55 11 30 21
44 21 30 1 -14 25 -25 53 -25 30 0 46 9 39 20 -7 12 -21 15 -31 9 -11 -6 -19
-2 -19 10 0 25 20 27 56 4z m3281 -26 c23 -36 22 -47 -5 -74 -48 -48 -107 12
-73 75 28 53 45 53 78 -1z m-3292 -262 c13 -37 -7 -96 -27 -84 -10 6 -18 30
-18 53 0 34 -5 37 -30 16 -20 -17 -27 -50 -21 -107 5 -46 9 -89 10 -97 0 -7
18 -19 38 -25 20 -6 36 -24 36 -39 0 -22 -7 -23 -37 -5 -48 30 -86 -19 -51
-66 19 -26 18 -27 -5 -6 -54 48 -70 26 -70 -100 -1 -148 -25 -280 -49 -266 -9
6 -12 62 -6 124 6 65 3 108 -8 101 -10 -6 -18 34 -19 88 0 54 6 98 14 98 23 0
16 149 -9 166 -13 8 2 9 32 2 35 -8 55 -4 55 10 0 12 -16 22 -35 22 -28 1 -29
4 -7 18 15 10 22 32 16 50 -9 23 5 36 52 50 92 26 129 26 139 -3z m3355 -285
c0 -56 -34 -84 -65 -53 -16 16 -15 36 2 74 27 60 63 48 63 -21z m200 -269 c-8
-44 -6 -87 5 -98 22 -22 13 -103 -13 -109 -40 -9 -65 172 -32 231 42 77 57 68
40 -24z"/>
<path d="M4835 8536 c-89 -96 -87 -89 -24 -101 39 -8 49 -3 40 20 -8 20 -2 26
17 19 39 -15 172 28 172 55 0 19 -103 94 -123 89 -4 -1 -41 -38 -82 -82z"/>
<path d="M4160 8527 c0 -16 -9 -24 -20 -17 -11 7 -20 4 -20 -6 0 -32 84 -43
122 -17 33 23 31 27 -23 47 -49 19 -59 17 -59 -7z"/>
<path d="M4295 8416 c-46 -58 -44 -76 7 -76 30 0 39 9 30 31 -6 17 1 35 18 42
16 6 25 19 19 29 -17 28 -36 21 -74 -26z"/>
<path d="M3992 8423 c-8 -13 -21 -20 -28 -15 -8 4 -25 -4 -38 -18 -19 -21 -13
-29 28 -39 62 -16 87 5 67 58 -10 27 -19 31 -29 14z"/>
<path d="M5000 8410 c-30 -37 -8 -71 40 -64 55 9 58 19 18 58 -30 28 -39 29
-58 6z"/>
<path d="M4880 8345 c-16 -6 -39 -22 -50 -34 -53 -62 -125 -70 -163 -20 -47
63 -72 63 -44 0 13 -28 31 -45 40 -39 9 6 17 -3 17 -19 0 -16 -13 -34 -30 -40
-16 -7 -30 -26 -30 -42 0 -40 32 -40 48 0 6 17 20 26 30 20 10 -6 37 11 59 39
26 34 43 42 49 25 6 -16 15 -11 27 15 9 22 35 40 57 40 22 0 42 16 46 35 7 36
-4 40 -56 20z"/>
<path d="M5383 8309 c-82 -85 -40 -116 52 -39 27 22 58 40 70 40 12 0 25 10
29 22 14 41 -107 22 -151 -23z"/>
<path d="M5171 8262 c-16 -26 10 -84 31 -71 46 29 60 89 20 89 -22 0 -45 -8
-51 -18z"/>
<path d="M3608 8138 c-28 -31 -25 -33 36 -28 41 3 68 17 72 36 9 42 -68 36
-108 -8z"/>
<path d="M3769 8158 c-18 -28 21 -67 49 -49 12 7 22 26 22 42 0 34 -51 39 -71
7z"/>
<path d="M3586 7102 c-34 -25 -30 -88 4 -75 18 7 42 13 52 13 10 0 18 17 18
37 0 35 -41 49 -74 25z"/>
<path d="M5650 7080 c20 -22 44 -40 53 -40 9 0 17 18 17 40 0 30 -13 40 -53
40 -52 0 -52 -1 -17 -40z"/>
<path d="M4515 7068 c-38 -38 37 -68 122 -50 5 1 -3 16 -17 32 -25 30 -83 40
-105 18z"/>
<path d="M4874 6995 c-28 -24 -48 -29 -62 -15 -28 28 -138 26 -121 -2 7 -12
29 -18 47 -13 18 5 46 -5 61 -21 16 -17 32 -22 35 -11 4 11 35 16 70 11 51 -8
60 -4 50 23 -16 43 18 43 42 1 21 -38 104 -21 104 21 0 45 -176 49 -226 6z"/>
<path d="M3381 6981 c-29 -53 -27 -61 15 -61 42 0 84 37 84 74 0 40 -76 31
-99 -13z"/>
<path d="M4169 6989 c49 -37 123 -37 137 -2 8 21 -12 28 -83 29 -86 2 -90 0
-54 -27z"/>
<path d="M3660 6919 c-16 -11 -57 -29 -90 -41 -55 -21 -57 -24 -20 -39 65 -26
78 -22 114 41 19 33 32 59 30 59 -2 -1 -17 -10 -34 -20z"/>
<path d="M5467 6637 c-21 -8 -61 -15 -91 -16 -70 -1 -255 -83 -322 -141 -95
-83 -16 -133 109 -69 142 74 616 128 660 75 12 -14 44 -26 71 -26 28 0 86 -31
131 -70 45 -38 94 -70 108 -70 15 0 46 -40 69 -89 62 -132 106 -162 87 -60
-29 156 -124 277 -282 359 -42 22 -91 56 -107 76 -32 39 -356 62 -433 31z"/>
<path d="M3525 6538 c-36 -11 -65 -26 -65 -35 0 -9 -47 -46 -105 -83 -154 -99
-235 -168 -267 -230 -47 -90 -10 -97 81 -13 47 43 113 85 148 92 34 8 68 22
74 32 6 10 44 32 85 50 41 18 91 42 113 53 47 26 228 24 259 -3 13 -10 107
-24 210 -30 103 -7 204 -21 224 -32 21 -11 38 -14 38 -7 0 7 14 2 30 -12 25
-21 30 -19 30 11 0 46 -97 149 -140 149 -17 0 -41 8 -51 17 -62 57 -513 84
-664 41z"/>
<path d="M5490 6246 c-44 -5 -89 -17 -99 -27 -10 -11 -30 -19 -44 -19 -14 0
-66 -28 -116 -63 -79 -56 -93 -60 -124 -35 -31 25 -33 24 -21 -9 8 -20 14 -63
14 -95 0 -42 10 -58 35 -59 33 0 33 -1 0 -21 -19 -11 -35 -38 -35 -59 0 -21
-9 -39 -20 -39 -11 0 -20 17 -20 39 0 21 -14 52 -31 70 -22 22 -24 31 -7 31
26 0 -40 58 -67 59 -29 2 -14 -99 25 -169 22 -39 40 -84 40 -101 0 -16 13 -29
29 -29 15 0 31 -20 35 -45 7 -51 76 -75 76 -26 0 17 -9 31 -19 31 -11 0 -14
14 -8 31 13 34 69 2 61 -35 -5 -25 61 -39 120 -26 29 7 41 21 33 40 -13 35 15
40 46 9 28 -28 128 -36 172 -15 22 11 35 10 35 -3 0 -11 36 -19 79 -18 64 3
103 37 42 37 -9 0 -51 15 -94 34 -42 19 -90 36 -107 37 -89 7 -156 35 -146 61
7 18 -4 28 -29 28 -76 0 -90 49 -32 107 62 63 107 68 107 14 0 -59 42 -139 78
-149 104 -29 324 -34 376 -8 35 17 84 23 131 15 41 -7 79 -8 85 -2 21 21 9 63
-20 63 -16 0 -41 18 -55 40 -13 22 -37 40 -52 40 -15 0 -62 27 -104 61 -84 66
-303 89 -489 50 l-80 -16 50 38 c219 167 432 149 629 -52 117 -121 153 -110
53 16 -109 138 -294 197 -532 169z m310 -252 c96 -78 75 -129 -67 -165 -44
-11 -49 -7 -39 30 8 33 1 46 -31 55 -24 6 -43 19 -43 28 0 10 0 25 -1 33 0 8
29 21 65 27 36 7 71 14 76 15 6 1 24 -9 40 -23z"/>
<path d="M5102 6221 c-33 -20 13 -81 62 -81 18 1 19 5 3 15 -12 8 -26 31 -30
49 -5 25 -15 30 -35 17z"/>
<path d="M3720 6204 c-71 -3 -139 -15 -149 -25 -10 -10 -30 -19 -43 -19 -45 0
-222 -189 -250 -265 -38 -109 6 -155 101 -105 59 30 71 30 143 1 137 -54 209
-37 83 20 -120 55 -124 65 -55 125 62 54 110 56 110 5 0 -61 38 -69 60 -12 10
28 28 51 40 51 33 0 23 -38 -20 -75 -96 -82 72 -159 175 -79 42 32 31 100 -14
89 -31 -9 -61 17 -61 53 0 3 37 17 83 31 98 29 231 -64 180 -125 -13 -16 -18
-46 -12 -66 12 -36 11 -36 -19 1 -31 38 -34 37 -39 -13 -3 -22 -67 -47 -173
-67 -137 -26 -253 -55 -284 -71 -19 -9 -48 -12 -65 -6 -20 8 -31 1 -31 -21 0
-26 13 -30 65 -21 62 12 120 18 383 38 67 5 125 20 135 35 12 20 16 16 17 -13
0 -29 15 -41 53 -43 48 -3 119 42 116 72 -4 25 49 61 61 41 17 -28 -8 -63 -34
-47 -13 8 -16 4 -8 -10 36 -58 132 18 132 104 0 10 13 29 29 41 49 38 50 240
1 249 -48 9 -129 63 -94 63 13 0 24 8 24 18 0 10 -18 14 -40 8 -22 -6 -40 -1
-40 12 0 12 -9 22 -20 22 -27 0 10 -91 60 -144 56 -61 39 -216 -25 -216 -12 0
-44 179 -37 215 2 14 -19 34 -47 45 -28 10 -51 27 -51 37 0 42 -232 77 -440
67z m290 -76 c106 -56 194 -128 156 -128 -13 0 -55 18 -93 41 -156 92 -502 41
-627 -94 -56 -60 -96 -64 -65 -5 106 199 424 293 629 186z"/>
<path d="M4611 6161 c-22 -35 14 -81 63 -81 35 0 47 10 42 33 -7 37 -89 74
-105 48z"/>
<path d="M4633 5924 c-6 -9 -3 -28 7 -44 18 -29 80 4 80 42 0 22 -74 24 -87 2z"/>
<path d="M6211 5782 c-6 -10 -6 -33 1 -50 8 -21 1 -32 -20 -32 -18 0 -32 -9
-32 -20 0 -11 36 -18 80 -17 82 4 104 24 49 45 -21 8 -27 25 -19 52 13 41 -36
59 -59 22z"/>
<path d="M6060 5625 c1 -37 37 -69 61 -54 18 11 22 6 13 -18 -17 -45 12 -42
56 7 36 40 25 51 -45 41 -14 -1 -25 7 -25 18 0 12 -13 21 -30 21 -16 0 -30 -7
-30 -15z"/>
<path d="M4030 5587 c-85 -19 -98 -27 -75 -50 23 -23 145 17 145 48 0 16 -5
16 -70 2z"/>
<path d="M4472 5585 c-30 -30 -8 -62 38 -57 28 3 51 11 50 19 0 7 0 20 0 29 0
19 -71 26 -88 9z"/>
<path d="M4620 5581 c-22 -15 -24 -25 -7 -42 15 -15 17 -43 6 -81 -9 -33 -8
-62 3 -69 29 -18 55 75 35 128 -9 25 -12 55 -6 65 14 23 7 22 -31 -1z"/>
<path d="M5369 5578 c-8 -12 -37 -16 -66 -9 -40 9 -45 7 -23 -8 41 -28 95 -26
107 4 8 20 10 20 11 0 1 -14 16 -25 33 -25 28 0 29 3 2 30 -36 36 -46 37 -64
8z"/>
<path d="M4900 5519 c0 -23 9 -36 20 -29 11 7 20 -1 20 -17 0 -16 14 -34 30
-40 17 -7 30 -28 30 -48 0 -38 36 -85 64 -85 9 0 16 18 16 40 0 22 -7 40 -17
40 -9 0 -29 25 -44 55 -54 107 -119 153 -119 84z"/>
<path d="M4420 5459 c0 -12 -9 -16 -20 -9 -11 7 -20 2 -20 -10 0 -32 -128
-154 -179 -170 -23 -7 -37 -21 -31 -30 6 -10 -1 -29 -17 -43 -15 -14 -24 -44
-20 -66 4 -23 2 -30 -4 -16 -20 40 -39 29 -39 -23 0 -27 5 -45 11 -41 6 3 24
-3 40 -14 24 -17 23 -19 -6 -10 -23 8 -35 1 -35 -18 0 -16 14 -29 32 -29 20 0
28 -11 21 -28 -6 -16 3 -34 21 -41 18 -7 27 -27 21 -50 -9 -32 3 -41 72 -52
46 -7 92 -21 104 -30 11 -9 32 -10 46 -1 25 15 -50 82 -92 82 -10 0 -47 29
-83 64 -105 103 -49 314 102 381 31 14 62 41 68 60 6 20 19 30 29 24 11 -6 19
12 19 40 0 28 -9 51 -20 51 -11 0 -20 -10 -20 -21z"/>
<path d="M5550 5446 c4 -20 8 -41 8 -48 1 -6 13 -11 27 -12 14 0 57 -6 95 -14
46 -10 61 -8 43 4 -23 16 -22 23 7 39 44 25 24 36 -93 53 -83 12 -93 10 -87
-22z"/>
<path d="M6431 5435 c5 -14 12 -56 15 -95 3 -47 16 -72 39 -76 43 -8 39 80 -6
151 -30 48 -64 62 -48 20z"/>
<path d="M2850 5300 c-15 -24 6 -100 28 -100 8 0 16 11 16 25 1 14 8 41 16 60
16 38 -37 52 -60 15z"/>
<path d="M5161 5235 c0 -14 13 -42 30 -64 69 -92 32 -216 -92 -302 -93 -64
-60 -110 43 -58 29 15 71 22 95 16 42 -12 63 23 22 37 -38 12 15 119 56 112
19 -3 41 -14 48 -24 7 -10 30 -11 50 -3 36 13 36 15 0 41 -20 15 -49 23 -64
17 -57 -22 -73 17 -27 66 l46 48 -49 -6 c-52 -5 -72 58 -30 91 12 9 2 11 -22
5 -28 -8 -46 -2 -54 18 -14 37 -53 41 -52 6z"/>
<path d="M4602 5143 c11 -27 34 -60 52 -74 30 -22 33 -48 21 -204 -1 -14 -9
-25 -18 -25 -28 0 -19 -30 19 -72 67 -71 74 -188 12 -188 -15 0 -28 -9 -28
-21 0 -36 53 -42 143 -18 139 37 163 39 190 16 15 -12 45 -17 66 -11 26 6 43
-2 51 -26 7 -21 46 -44 96 -57 136 -36 249 -144 219 -210 -25 -56 -125 -78
-125 -28 0 14 -25 40 -55 59 -30 19 -70 46 -89 60 -47 34 -69 6 -27 -35 18
-19 28 -38 23 -44 -17 -16 -332 38 -332 57 0 10 -17 18 -38 18 -22 0 -66 23
-98 50 -73 61 -276 74 -297 18 -7 -17 -34 -39 -60 -49 -26 -10 -47 -31 -47
-46 0 -16 -22 -34 -50 -41 -32 -8 -50 -27 -50 -52 0 -49 -72 -70 -147 -41 -74
28 -94 27 -82 -5 6 -15 -12 -51 -40 -81 -52 -57 -66 -85 -31 -63 19 12 28 -13
22 -63 -5 -42 59 -47 93 -7 19 22 55 40 80 40 26 0 66 18 89 39 23 22 81 45
129 52 67 11 87 22 87 51 0 21 10 38 21 38 12 0 19 -20 15 -45 -5 -41 4 -46
97 -55 57 -6 120 -26 140 -44 56 -51 217 -35 322 31 82 51 304 79 305 38 1
-48 36 -68 78 -46 47 25 122 11 122 -22 0 -35 55 -77 104 -79 25 0 35 -6 21
-11 -35 -14 -31 -47 5 -47 36 0 40 72 5 87 -16 6 -18 16 -5 26 51 42 29 167
-28 167 -46 0 -94 116 -62 148 13 13 20 13 20 -2 0 -12 20 -27 45 -34 38 -10
40 -15 15 -32 -24 -16 -21 -19 17 -20 35 0 44 8 35 32 -7 17 -12 43 -12 57 0
25 -59 54 -118 59 -16 1 -32 13 -37 27 -5 14 -25 25 -45 25 -21 0 -43 9 -50
20 -7 11 -29 20 -49 20 -20 0 -42 14 -49 31 -9 25 -20 26 -53 8 -24 -12 -44
-19 -47 -16 -2 4 -15 32 -28 62 -13 30 -37 55 -54 55 -16 0 -30 8 -30 17 0 25
-143 25 -173 1 -49 -41 -92 -12 -96 67 -3 45 -21 89 -45 110 -45 40 -43 145 5
219 37 57 36 66 -3 66 -19 0 -28 11 -22 27 7 19 -16 33 -76 47 l-87 20 19 -51z
m-79 -801 c61 -50 41 -67 -93 -78 -76 -6 -110 -18 -110 -36 0 -30 -24 -37 -47
-15 -15 15 43 87 70 87 9 0 35 18 57 40 50 50 64 50 123 2z m312 -123 c124 16
164 -9 121 -79 -22 -36 -39 -41 -106 -31 -110 16 -132 16 -195 0 -79 -20 -155
4 -155 49 0 38 50 71 80 52 9 -6 37 -2 63 8 26 9 56 11 67 2 11 -8 67 -9 125
-1z"/>
<path d="M4970 5084 c-39 -8 -110 -69 -110 -96 0 -60 157 -88 209 -37 76 77
18 156 -99 133z"/>
<path d="M4313 5067 c-69 -69 57 -158 192 -134 l101 17 -55 65 c-53 63 -195
94 -238 52z"/>
<path d="M6115 5052 c-49 -37 -44 -46 25 -48 47 -1 60 7 60 37 0 45 -35 49
-85 11z"/>
<path d="M3394 4980 c-11 -43 14 -70 46 -50 30 19 24 90 -8 90 -15 0 -32 -18
-38 -40z"/>
<path d="M6270 4981 c-5 -10 -1 -41 9 -69 31 -82 90 -62 68 23 -12 46 -59 74
-77 46z"/>
<path d="M5460 4870 c0 -27 10 -50 21 -50 12 0 16 -9 9 -20 -12 -19 17 -29 58
-21 10 2 9 -9 -3 -24 -14 -16 -16 -37 -5 -55 30 -49 47 29 22 104 -30 91 -102
137 -102 66z"/>
<path d="M3089 4874 c-6 -15 2 -51 17 -80 l28 -53 26 49 c21 39 21 54 1 79
-32 38 -59 40 -72 5z"/>
<path d="M3846 4845 c-13 -4 -19 -19 -14 -33 10 -27 108 -20 108 8 0 19 -62
36 -94 25z"/>
<path d="M4482 4745 c11 -64 -3 -86 -42 -65 -27 15 -41 15 -42 1 -2 -12 -5
-30 -8 -41 -3 -11 -6 -31 -7 -44 -2 -19 -8 -19 -27 0 -37 37 -76 29 -76 -16 0
-26 -13 -40 -38 -40 -20 0 -42 -18 -48 -40 -6 -22 -27 -46 -47 -54 -20 -7 -61
-31 -91 -52 -39 -29 -72 -37 -125 -28 l-71 11 0 -100 c0 -72 7 -98 25 -91 14
5 23 19 20 31 -3 13 13 23 35 23 58 0 188 87 239 159 24 34 56 61 70 61 15 0
32 13 38 30 6 16 24 25 39 19 15 -6 39 3 53 20 14 17 45 31 68 31 50 1 142
128 125 172 -11 28 -94 41 -90 13z"/>
<path d="M3040 4535 c0 -54 11 -79 42 -96 40 -21 41 -19 28 44 -23 108 -70
143 -70 52z"/>
<path d="M5964 4499 c-30 -48 -14 -119 27 -119 16 0 23 -12 17 -28 -18 -47 28
-56 53 -10 16 30 16 39 1 29 -14 -8 -22 7 -22 44 0 90 -43 137 -76 84z"/>
<path d="M6293 4505 c-11 -17 39 -145 56 -145 23 0 10 78 -18 106 -16 16 -24
35 -17 42 7 6 7 12 1 12 -7 0 -17 -7 -22 -15z"/>
<path d="M4914 4414 c-7 -18 10 -26 57 -26 57 0 61 3 32 25 -43 33 -76 34 -89
1z"/>
<path d="M6069 4150 c-5 -16 -14 -45 -19 -62 -8 -23 -1 -29 21 -20 18 6 36 12
41 12 4 0 8 23 8 50 0 54 -35 68 -51 20z"/>
<path d="M3200 4019 c0 -35 40 -99 61 -99 32 0 21 95 -13 108 -43 16 -48 15
-48 -9z"/>
<path d="M3386 3986 c-7 -19 -3 -37 11 -42 13 -4 18 -16 12 -26 -6 -10 7 -18
30 -18 42 0 57 48 21 70 -12 7 -15 21 -9 31 6 11 -3 19 -20 19 -18 0 -38 -15
-45 -34z"/>
<path d="M5913 4006 c-22 -22 -14 -43 31 -85 47 -44 90 -27 70 26 -14 36 -84
77 -101 59z"/>
<path d="M5189 3962 c-32 -20 -76 -56 -97 -79 -21 -24 -56 -43 -77 -43 -77 0
-151 -74 -145 -145 3 -44 15 -65 37 -65 43 -1 83 -42 56 -58 -11 -7 -26 -4
-33 8 -7 11 -28 20 -48 20 -20 0 -50 16 -67 35 -47 51 -163 44 -171 -10 -3
-22 -24 -57 -45 -76 -46 -42 -51 -89 -9 -89 17 0 30 10 30 21 0 12 9 16 20 9
11 -7 20 -5 20 4 0 9 64 16 141 16 193 0 213 10 203 96 -6 55 -15 67 -44 60
-49 -13 -94 64 -48 82 17 7 48 12 67 12 20 0 42 14 48 30 7 17 21 30 33 30 12
0 43 23 68 50 26 28 62 50 80 50 31 0 67 52 49 70 -5 5 -35 -8 -68 -28z"/>
<path d="M4151 3961 c-7 -10 8 -30 33 -43 25 -13 51 -30 56 -37 90 -117 487
-215 447 -110 -6 16 -1 29 11 29 12 0 22 -14 22 -31 0 -25 5 -26 28 -5 32 30
-39 84 -78 60 -11 -7 -41 -10 -67 -7 -28 4 -42 -2 -35 -14 7 -11 2 -27 -11
-35 -14 -8 -18 -6 -10 7 8 13 -26 35 -85 54 -55 18 -110 46 -123 62 -13 16
-39 29 -57 29 -18 0 -53 14 -76 30 -26 18 -48 23 -55 11z"/>
<path d="M3345 3805 c-46 -16 -27 -85 28 -106 29 -11 55 -18 58 -15 15 16 -65
129 -86 121z"/>
<path d="M5726 3620 c-12 -44 -23 -48 -64 -22 -38 25 -82 5 -69 -30 6 -15 19
-23 29 -17 10 6 18 2 18 -10 0 -32 54 -25 67 9 7 17 26 30 42 30 18 0 31 17
31 40 0 22 -10 40 -22 40 -12 0 -26 -18 -32 -40z"/>
<path d="M5855 3647 c35 -14 31 -100 -5 -114 -39 -15 -39 -53 1 -53 17 0 26 8
20 18 -6 10 -4 22 6 25 45 18 43 137 -2 135 -25 0 -34 -6 -20 -11z"/>
<path d="M5080 3534 c-52 -26 -67 -75 -27 -88 13 -5 37 19 53 53 17 34 29 61
27 61 -1 0 -25 -12 -53 -26z"/>
<path d="M5380 3526 c0 -24 -6 -59 -14 -79 -11 -31 -9 -33 17 -12 17 13 36 19
43 12 7 -7 9 8 4 34 -13 65 -50 99 -50 45z"/>
<path d="M4404 3497 c-36 -10 -60 -27 -54 -38 19 -30 60 -22 110 21 50 44 43
46 -56 17z"/>
<path d="M5500 3484 c0 -22 14 -45 31 -52 24 -9 30 -1 25 32 -8 55 -56 73 -56
20z"/>
<path d="M4024 3424 c4 -19 23 -37 43 -41 26 -5 35 4 30 28 -4 20 -23 38 -43
41 -25 3 -34 -6 -30 -28z"/>
<path d="M3959 3328 c-22 -26 -22 -34 1 -48 34 -21 60 -8 60 30 0 43 -33 53
-61 18z"/>
<path d="M3640 3172 c0 -15 -18 -32 -40 -38 -38 -10 -38 -74 -1 -74 24 0 121
-96 121 -119 0 -27 88 -48 149 -36 38 7 51 -1 60 -38 6 -26 25 -47 42 -47 16
0 39 -22 49 -50 19 -51 76 -66 111 -31 26 26 70 -4 77 -51 8 -53 66 -59 82 -9
7 22 25 41 40 41 15 0 42 6 60 13 27 10 32 2 27 -45 -6 -46 1 -59 33 -62 22
-2 58 -7 80 -10 28 -4 42 7 46 38 8 53 67 76 121 48 21 -11 43 -15 50 -9 22
23 170 41 197 24 19 -13 15 -20 -19 -29 -75 -21 -51 -48 43 -48 135 0 210 21
223 62 7 24 30 38 60 38 31 0 49 11 49 31 0 23 16 29 64 24 65 -7 144 36 124
69 -6 9 8 16 30 16 22 0 45 9 52 20 7 11 28 20 46 20 19 0 62 26 96 58 34 32
79 61 100 65 53 10 48 59 -9 80 -37 14 -49 10 -56 -19 -15 -56 -84 -92 -119
-62 -23 18 -36 17 -63 -8 -19 -17 -61 -37 -93 -45 -32 -8 -74 -29 -93 -47 -82
-74 -96 -81 -103 -59 -6 17 -20 16 -52 -1 -49 -26 -93 -12 -71 23 9 14 -1 17
-29 10 -31 -8 -44 0 -50 32 l-9 43 -2 -42 c-3 -44 -66 -68 -178 -68 -28 0 -61
-13 -73 -29 -34 -45 -211 -48 -235 -4 -18 32 -23 31 -71 -7 -83 -65 -205 -49
-208 27 0 24 -6 32 -11 18 -26 -64 -83 -66 -150 -5 -71 65 -88 71 -107 40 -19
-31 -75 -23 -130 19 -44 34 -46 40 -15 52 19 7 35 32 35 54 0 39 -2 40 -39 6
-39 -36 -43 -35 -218 21 -22 7 -22 17 4 56 29 45 26 72 -10 72 -9 0 -17 -12
-17 -28z"/>
<path d="M3841 3161 c-33 -21 -46 -81 -18 -81 26 0 77 52 77 79 0 26 -20 27
-59 2z"/>
<path d="M4640 2503 c0 -48 1 -48 40 -13 22 20 40 42 40 49 0 7 -18 12 -40 12
-29 0 -40 -13 -40 -48z"/>
<path d="M5332 2399 c-42 -50 -48 -70 -30 -91 36 -43 78 -33 78 18 0 25 11 57
24 70 17 17 18 30 3 45 -15 15 -37 3 -75 -42z"/>
<path d="M4049 2402 c8 -13 21 -18 30 -13 31 19 137 -32 147 -70 13 -51 114
-55 114 -5 0 26 -5 29 -24 10 -35 -35 -54 -29 -42 14 11 42 -7 50 -152 73 -62
9 -83 7 -73 -9z"/>
<path d="M4401 2292 c-16 -20 -16 -33 -2 -41 28 -18 61 4 61 40 0 37 -28 37
-59 1z"/>
<path d="M5097 2281 c-26 -22 -38 -40 -26 -40 32 -1 129 47 129 64 0 28 -56
15 -103 -24z"/>
<path d="M4564 2280 c-75 -17 -97 -33 -76 -54 22 -22 312 -27 312 -5 0 10 -26
19 -58 19 -85 0 -133 21 -99 42 32 20 12 20 -79 -2z"/>
<path d="M3928 2177 c-26 -42 57 -84 87 -44 14 19 25 42 25 51 0 25 -96 19
-112 -7z"/>
<path d="M4580 2002 c0 -10 -5 -32 -11 -48 -7 -18 4 -33 31 -40 33 -8 38 -5
21 15 -12 14 -16 41 -9 58 7 18 2 33 -10 33 -12 0 -22 -8 -22 -18z"/>
<path d="M6211 1928 c-7 -29 -8 -58 -2 -64 6 -6 11 4 11 23 0 39 32 44 47 8 5
-14 11 0 11 30 2 71 -49 73 -67 3z"/>
<path d="M2497 1965 c-4 -8 -38 -31 -77 -50 -38 -19 -83 -44 -100 -55 -16 -11
-55 -29 -86 -40 -81 -28 -40 -108 49 -95 32 4 64 -1 71 -11 7 -12 2 -14 -14
-4 -17 10 -22 6 -15 -12 5 -15 20 -26 33 -23 12 3 22 -8 22 -25 0 -17 18 -30
40 -30 22 0 40 -7 40 -16 0 -28 77 -22 101 8 20 24 18 27 -12 15 -28 -11 -33
-6 -24 18 9 24 3 30 -24 25 -45 -8 -93 40 -111 113 -17 67 25 98 63 46 15 -20
27 -30 27 -23 0 8 18 -4 40 -26 54 -54 89 -52 70 5 -8 25 -18 72 -21 105 -3
33 -7 67 -7 75 -1 8 -15 15 -30 15 -16 0 -32 -7 -35 -15z"/>
<path d="M1988 1674 c-32 -26 -71 -53 -88 -59 -19 -8 -12 -13 20 -16 69 -5 83
-8 140 -32 83 -35 160 -49 160 -29 0 38 -25 82 -46 82 -12 0 -46 23 -75 51
l-53 51 -58 -48z"/>
<path d="M7320 1615 c0 -95 39 -172 81 -160 22 5 39 20 39 32 -1 31 -39 88
-42 63 -2 -11 -8 6 -15 38 -16 74 -63 94 -63 27z"/>
<path d="M2720 1591 c0 -18 -9 -28 -20 -21 -11 7 -20 5 -20 -4 0 -9 -18 -28
-40 -41 -28 -18 -39 -19 -35 -3 3 13 -6 27 -18 32 -15 5 -20 -6 -13 -33 6 -22
22 -41 37 -41 14 0 42 -6 61 -13 27 -11 32 -6 22 19 -9 24 -3 29 22 20 19 -7
27 -5 19 4 -8 9 0 26 17 39 29 21 29 25 0 50 -27 22 -32 21 -32 -8z"/>
<path d="M1826 1495 c-2 -47 2 -69 7 -50 6 19 17 35 26 35 8 0 11 23 6 50 -15
78 -37 59 -39 -35z"/>
<path d="M1608 1493 c-47 -40 -50 -48 -20 -59 19 -8 29 -6 23 4 -6 10 3 29 19
42 21 17 30 18 30 2 0 -42 91 -25 95 18 4 56 -78 53 -147 -7z"/>
<path d="M2749 1498 c-7 -23 -3 -52 9 -64 16 -16 22 -15 22 4 0 22 6 22 31 1
17 -14 26 -37 21 -52 -7 -17 4 -27 27 -27 21 0 50 -12 65 -26 60 -58 183 -122
191 -98 5 13 16 24 26 24 10 0 12 -16 5 -35 -7 -19 -5 -29 3 -21 9 8 34 -8 55
-35 21 -27 52 -49 67 -49 26 0 38 -24 31 -65 -1 -8 0 -15 3 -16 3 0 41 -5 85
-12 44 -6 100 -23 124 -39 25 -15 61 -28 80 -29 20 0 90 -27 155 -60 66 -32
145 -59 175 -59 31 0 56 -9 56 -20 0 -11 17 -20 38 -20 20 0 51 -20 69 -45 27
-40 31 -41 32 -8 1 28 10 33 36 22 19 -8 52 -14 73 -13 43 2 115 -31 135 -63
8 -11 53 -23 100 -27 48 -4 96 -18 107 -32 46 -57 122 -73 157 -32 18 21 52
38 76 38 24 0 38 6 30 13 -7 8 -44 12 -83 11 -49 -2 -70 6 -70 27 0 19 -23 30
-70 32 -38 1 -77 4 -85 6 -8 2 -37 10 -65 18 -27 8 -77 17 -110 22 -33 4 -82
14 -110 21 -27 7 -63 13 -80 13 -16 1 -77 22 -136 49 -58 26 -109 48 -115 48
-5 0 -48 17 -94 38 -47 21 -121 49 -165 63 -44 13 -91 33 -105 44 -13 11 -39
14 -56 7 -18 -6 -26 -3 -19 8 7 11 -3 26 -23 34 -20 7 -38 3 -42 -10 -5 -13
-23 -24 -42 -24 -26 1 -28 4 -5 18 31 20 13 62 -27 62 -15 0 -32 14 -38 30 -7
17 -25 30 -42 30 -29 0 -51 17 -188 140 -36 33 -77 60 -90 60 -13 0 -38 16
-56 35 -96 107 -148 126 -168 63z"/>
<path d="M7098 1445 c-4 -126 -3 -123 -35 -182 -24 -43 -23 -45 14 -25 56 30
63 28 63 -18 0 -22 -10 -40 -22 -40 -16 0 -15 -9 2 -30 15 -18 16 -30 4 -30
-29 0 -99 -125 -93 -166 3 -19 -3 -34 -13 -34 -10 0 -17 -25 -16 -55 1 -54 2
-54 33 15 18 39 30 84 29 100 -7 62 34 94 66 51 47 -61 59 -21 57 189 -2 165
-9 209 -44 264 l-42 66 -3 -105z"/>
<path d="M7781 1521 c-23 -14 -15 -31 40 -87 116 -118 131 -168 88 -307 -7
-23 -3 -49 9 -56 12 -7 23 -4 25 8 11 96 44 129 99 100 47 -24 47 -24 13 14
-28 33 -45 79 -54 149 -1 11 -181 199 -189 198 -1 0 -15 -9 -31 -19z"/>
<path d="M2234 1492 c-6 -15 11 -46 38 -70 56 -48 70 -3 20 63 -32 42 -44 44
-58 7z"/>
<path d="M2340 1411 c0 -36 33 -58 61 -40 14 8 14 21 -2 41 -31 36 -59 36 -59
-1z"/>
<path d="M1389 1399 c-7 -12 -32 -30 -56 -39 l-43 -17 44 -2 c24 0 49 -10 57
-22 21 -34 66 17 55 62 -12 43 -36 51 -57 18z"/>
<path d="M1200 1360 c0 -11 -7 -18 -15 -15 -8 3 -15 -4 -16 -15 0 -19 29 -19
86 0 40 14 29 50 -15 50 -22 0 -40 -9 -40 -20z"/>
<path d="M7361 1304 c0 -26 -9 -62 -20 -81 -10 -20 -12 -45 -4 -58 21 -33 58
103 41 147 -13 34 -15 33 -17 -8z"/>
<path d="M1022 1282 c-15 -10 -21 -28 -13 -40 16 -25 91 6 91 39 0 24 -41 24
-78 1z"/>
<path d="M8401 1286 c0 -14 -14 -20 -31 -13 -45 17 -36 -20 12 -50 53 -33 70
-16 42 42 -11 25 -22 34 -23 21z"/>
<path d="M6863 1229 c-27 -27 -41 -57 -32 -71 10 -15 7 -19 -8 -10 -15 9 -23
-3 -23 -37 0 -59 49 -70 77 -16 18 35 50 187 39 183 -3 -1 -27 -23 -53 -49z"/>
<path d="M8191 1205 c21 -94 27 -105 58 -105 40 0 40 72 1 87 -16 7 -30 26
-30 42 0 17 -9 31 -20 31 -12 0 -16 -23 -9 -55z"/>
<path d="M800 1178 c0 -10 11 -18 25 -18 17 -1 16 -7 -4 -19 -17 -10 -24 -25
-17 -32 18 -17 51 5 75 50 17 30 12 36 -30 36 -27 0 -49 -8 -49 -17z"/>
<path d="M8300 1119 c0 -32 9 -39 38 -30 21 7 44 3 51 -8 16 -26 51 -28 51 -3
0 10 -22 23 -50 30 -27 7 -50 22 -50 32 0 11 -9 20 -20 20 -11 0 -20 -19 -20
-41z"/>
<path d="M604 1105 c-40 -14 -137 -109 -104 -102 17 4 44 23 62 42 18 19 37
29 44 23 6 -7 26 -3 45 7 38 22 0 46 -47 30z"/>
<path d="M6639 1040 c-33 -29 -41 -46 -24 -53 14 -6 25 -22 25 -35 0 -14 14
-25 30 -25 36 0 40 26 5 38 -20 7 -19 16 2 41 45 55 16 82 -38 34z"/>
<path d="M6803 977 c4 -26 21 -47 37 -47 43 0 37 78 -7 87 -28 5 -35 -4 -30
-40z"/>
<path d="M8365 965 c-35 -74 -31 -91 12 -50 34 33 43 72 22 93 -5 5 -21 -15
-34 -43z"/>
<path d="M325 986 c-49 -10 -59 -35 -21 -58 13 -8 27 -4 32 9 4 13 17 17 29
10 12 -7 15 -4 8 8 -7 12 2 26 22 31 45 12 -9 12 -70 0z"/>
<path d="M6442 948 c-38 -27 -84 -84 -103 -126 -35 -78 -98 -118 -142 -90 -15
9 -18 5 -8 -11 9 -13 32 -20 53 -15 21 6 43 2 49 -8 7 -10 22 -13 33 -5 15 9
16 3 6 -15 -10 -15 20 8 66 52 48 45 84 99 84 123 0 23 14 48 30 54 30 12 44
95 15 91 -8 -1 -46 -23 -83 -50z"/>
<path d="M7820 933 c0 -16 -5 -44 -12 -61 -8 -21 -1 -32 20 -32 36 0 46 89 12
110 -11 7 -20 -1 -20 -17z"/>
<path d="M6809 773 c-7 -40 -21 -68 -31 -62 -10 6 -12 -3 -6 -20 19 -49 68
-37 68 17 0 27 11 53 25 58 18 7 16 18 -9 44 -31 34 -34 32 -47 -37z"/>
<path d="M7758 838 c-1 -4 -4 -26 -6 -48 -3 -22 -16 -74 -30 -116 -27 -79 -19
-134 19 -134 14 0 17 22 9 61 -10 43 -4 72 18 96 17 20 27 56 22 82 -8 43 -28
79 -32 59z"/>
<path d="M6053 759 c-36 -22 -48 -40 -34 -49 16 -10 13 -21 -11 -39 -27 -20
-29 -28 -7 -41 16 -11 30 -8 34 6 5 13 21 24 37 24 15 0 28 17 28 38 0 21 14
43 30 49 17 7 30 20 30 29 0 27 -45 20 -107 -17z"/>
<path d="M7088 771 c-7 -17 -25 -31 -40 -31 -16 0 -22 -12 -14 -32 6 -18 0
-39 -13 -48 -18 -11 -20 -26 -6 -51 19 -33 21 -32 34 8 8 24 22 43 32 43 11 0
19 16 19 36 0 20 10 46 22 58 15 15 15 25 0 35 -12 7 -28 -1 -34 -18z"/>
<path d="M5605 686 c-57 -11 -58 -38 -2 -67 33 -18 46 -17 59 4 14 22 18 21
18 -3 1 -24 6 -23 22 5 24 42 70 46 92 8 21 -35 103 -55 119 -28 8 12 4 15
-10 7 -13 -8 -23 -5 -23 7 0 11 -19 21 -42 21 -29 0 -39 9 -31 30 12 30 -87
38 -202 16z"/>
<path d="M4944 657 c5 -15 34 -30 65 -34 39 -4 53 2 47 20 -5 15 -34 30 -65
34 -39 4 -53 -2 -47 -20z"/>
<path d="M5120 642 c0 -21 49 -42 101 -42 25 0 34 10 26 30 -12 32 -127 43
-127 12z"/>
<path d="M8200 613 c0 -25 -9 -54 -21 -66 -26 -26 -42 -207 -18 -207 31 0 64
107 67 223 1 29 9 49 17 44 8 -5 15 -1 15 10 0 10 -13 24 -30 30 -21 8 -30 -2
-30 -34z"/>
<path d="M8720 591 c0 -27 9 -54 19 -60 11 -7 9 -45 -6 -96 -25 -86 -26 -183
-2 -275 7 -27 12 -75 11 -105 -3 -52 2 -55 88 -55 l92 0 -3 195 c-4 249 -24
373 -66 415 -24 24 -33 26 -33 6 -1 -21 -4 -21 -18 1 -14 23 -19 23 -28 0 -8
-19 -11 -20 -12 -2 -3 47 -42 25 -42 -24z"/>
<path d="M6675 557 c-19 -20 -29 -37 -21 -37 8 0 3 -11 -10 -24 -27 -27 -33
-96 -8 -96 14 0 91 182 79 190 -3 2 -21 -13 -40 -33z"/>
<path d="M4226 534 c24 -25 62 -71 84 -101 22 -31 57 -58 78 -61 21 -3 49 -21
64 -41 17 -23 39 -31 61 -22 20 7 30 7 23 0 -8 -7 -3 -25 10 -38 19 -21 28
-19 48 7 30 39 34 89 6 72 -11 -7 -25 -1 -30 14 -6 14 -42 28 -81 30 -46 2
-84 19 -109 50 -27 32 -39 37 -39 17 -1 -19 -14 -12 -36 20 -19 27 -31 52 -28
57 9 11 -43 41 -71 42 -13 0 -4 -21 20 -46z"/>
<path d="M4721 565 c1 -28 53 -84 66 -71 30 29 12 86 -27 86 -22 0 -40 -7 -39
-15z"/>
<path d="M3718 525 c-15 -19 -19 -29 -10 -21 10 8 33 6 53 -4 26 -14 38 -11
47 11 6 18 3 26 -8 19 -11 -7 -20 -3 -20 9 0 32 -32 25 -62 -14z"/>
<path d="M5310 520 c-44 -8 -64 -16 -44 -17 20 -2 31 -11 25 -21 -10 -16 31
-42 67 -42 9 0 26 23 38 50 13 28 17 49 9 47 -8 -1 -51 -9 -95 -17z"/>
<path d="M7753 506 c-7 -6 -36 -13 -66 -14 -30 -1 -57 -13 -62 -26 -5 -16 12
-23 47 -20 66 5 90 -44 29 -60 -25 -7 -39 -22 -33 -38 6 -15 2 -32 -9 -39 -32
-19 -21 -40 21 -40 22 0 40 12 40 28 0 16 14 39 32 52 17 13 33 52 36 88 4 64
-10 94 -35 69z"/>
<path d="M7957 431 c-53 -70 -72 -201 -28 -184 19 7 39 13 44 13 5 0 4 9 -3
20 -7 12 -2 52 10 91 30 90 19 117 -23 60z"/>
<path d="M3891 390 c54 -71 89 -89 89 -47 0 24 -100 117 -126 117 -9 0 8 -31
37 -70z"/>
<path d="M8362 398 c-12 -35 -22 -103 -22 -152 0 -59 -10 -91 -30 -99 -16 -6
-30 -24 -30 -40 0 -16 8 -24 18 -18 9 6 29 -3 42 -19 20 -24 20 -30 -2 -30
-20 0 -21 -5 -2 -24 32 -32 50 -9 46 58 -5 86 -1 148 17 236 2 11 12 2 21 -20
14 -32 17 -25 19 36 0 46 9 71 21 64 11 -7 20 2 20 19 0 17 -8 31 -18 31 -10
0 -32 5 -48 11 -20 8 -36 -9 -52 -53z"/>
<path d="M4970 379 c-6 -9 1 -23 15 -32 35 -22 95 -30 95 -12 0 24 -99 63
-110 44z"/>
<path d="M8098 274 c0 -24 -4 -61 -8 -83 -13 -70 15 -77 43 -11 35 83 34 113
-3 127 -21 8 -30 -2 -32 -33z"/>
<path d="M954 287 c-31 -31 -14 -70 26 -57 39 12 56 -32 40 -100 -14 -57 -7
-117 14 -124 33 -12 42 127 13 214 -22 67 -63 97 -93 67z"/>
<path d="M7930 175 c-30 -125 -28 -178 6 -171 23 4 32 35 35 121 4 126 -17
152 -41 50z"/>
</g>
</svg>
